<svg width="100" height="100" viewBox="0 0 100 100" fill="none" xmlns="http://www.w3.org/2000/svg">
<rect width="100" height="100" rx="20" fill="#343434"/>
<path d="M47.7031 69.7031C47.4453 71.5312 47.0703 73.0898 46.5781 74.3789C46.0859 75.6445 45.4883 76.6875 44.7852 77.5078C44.082 78.3047 43.2734 78.8789 42.3594 79.2305C41.4688 79.6055 40.4844 79.793 39.4062 79.793C37.8828 79.793 36.4531 79.3477 35.1172 78.457C33.8047 77.5664 32.668 76.2422 31.707 74.4844C30.7461 72.7266 29.9844 70.5469 29.4219 67.9453C28.8828 65.3438 28.6133 62.332 28.6133 58.9102C28.6133 55.3242 28.9531 51.8438 29.6328 48.4688C30.3359 45.0938 31.3203 41.9297 32.5859 38.9766C33.875 36.0234 35.4102 33.3281 37.1914 30.8906C38.9961 28.4297 41 26.332 43.2031 24.5977C45.4297 22.8398 47.832 21.4805 50.4102 20.5195C52.9883 19.5352 55.6836 19.043 58.4961 19.043C60.9102 19.043 63.1133 19.4062 65.1055 20.1328C67.0977 20.8594 68.8086 21.8672 70.2383 23.1562C71.668 24.4453 72.7695 25.9688 73.543 27.7266C74.3164 29.4844 74.7031 31.3828 74.7031 33.4219C74.7031 35.8828 74.3633 38.1797 73.6836 40.3125C73.0039 42.4219 72.0547 44.3555 70.8359 46.1133C69.6406 47.8711 68.2109 49.4414 66.5469 50.8242C64.8828 52.207 63.0664 53.3789 61.0977 54.3398C59.1523 55.3008 57.0898 56.0508 54.9102 56.5898C52.7539 57.1055 50.5625 57.3984 48.3359 57.4688C48.2656 60.3984 48.1836 62.8711 48.0898 64.8867C48.0195 66.8789 47.8906 68.4844 47.7031 69.7031ZM41.5859 54.9727C41.7031 55.0195 41.8438 55.0664 42.0078 55.1133C42.1484 55.1602 42.3125 55.207 42.5 55.2539C42.7109 55.3008 42.957 55.3477 43.2383 55.3945C43.1914 52.4648 43.1328 49.7812 43.0625 47.3438C43.0156 44.8828 42.957 42.7383 42.8867 40.9102C42.793 38.7773 42.7109 36.8555 42.6406 35.1445C42.8047 35.0039 42.9922 34.8867 43.2031 34.793C43.3906 34.6992 43.6133 34.6172 43.8711 34.5469C44.1289 34.4766 44.4453 34.4414 44.8203 34.4414C45.8984 34.4414 46.7656 34.6406 47.4219 35.0391C48.0781 35.4141 48.4062 36.0586 48.4062 36.9727C48.4062 40.8398 48.4062 44.3086 48.4062 47.3789C48.4062 50.4492 48.3828 53.2148 48.3359 55.6758C51.4062 55.6758 54.1836 55.0898 56.668 53.918C59.1758 52.7461 61.3086 51.1875 63.0664 49.2422C64.8242 47.2734 66.1836 45.0117 67.1445 42.457C68.1055 39.9023 68.5859 37.2305 68.5859 34.4414C68.5859 32.6602 68.3398 30.9727 67.8477 29.3789C67.3789 27.7617 66.6523 26.3555 65.668 25.1602C64.6836 23.9414 63.4414 22.9805 61.9414 22.2773C60.4648 21.5508 58.7188 21.1875 56.7031 21.1875C54.6641 21.1875 52.6484 21.5742 50.6562 22.3477C48.6875 23.1211 46.8008 24.2812 44.9961 25.8281C43.2148 27.375 41.5625 29.2969 40.0391 31.5938C38.5391 33.8906 37.2266 36.5742 36.1016 39.6445C35 42.7148 34.1328 46.1602 33.5 49.9805C32.8906 53.7773 32.5859 57.9609 32.5859 62.5312C32.5859 64.5 32.6797 66.4219 32.8672 68.2969C33.0781 70.1484 33.418 71.8008 33.8867 73.2539C34.3555 74.6836 34.9766 75.832 35.75 76.6992C36.5469 77.5664 37.5312 78 38.7031 78C39.3359 78 39.9336 77.8711 40.4961 77.6133C41.0586 77.3555 41.5508 76.8281 41.9727 76.0312C42.3945 75.2109 42.7344 74.0508 42.9922 72.5508C43.25 71.0273 43.3789 69 43.3789 66.4688C43.3789 64.875 43.3672 63.3047 43.3438 61.7578C43.3203 60.1875 43.3086 58.6641 43.3086 57.1875C42.957 57.1406 42.6523 57.082 42.3945 57.0117C42.1367 56.9414 41.9141 56.8828 41.7266 56.8359C41.5156 56.7656 41.3398 56.6953 41.1992 56.625L41.5859 54.9727Z" fill="white"/>
</svg>
